<?xml version="1.0" encoding="UTF-8"?>
<!DOCTYPE svg PUBLIC "-//W3C//DTD SVG 1.1//EN" "http://www.w3.org/Graphics/SVG/1.1/DTD/svg11.dtd">
<!-- Creator: CorelDRAW -->
<svg xmlns="http://www.w3.org/2000/svg" xml:space="preserve" width="2400px" height="3600px" style="shape-rendering:geometricPrecision; text-rendering:geometricPrecision; image-rendering:optimizeQuality; fill-rule:evenodd; clip-rule:evenodd"
viewBox="0 0 2400 3394.29"
 xmlns:xlink="http://www.w3.org/1999/xlink">
 <defs>
  <style type="text/css">
   <![CDATA[
    .str0 {stroke:black;stroke-width:0.870857}
    .fil8 {fill:black}
    .fil3 {fill:#009933;fill-rule:nonzero}
    .fil4 {fill:#00CCFF;fill-rule:nonzero}
    .fil6 {fill:#669933;fill-rule:nonzero}
    .fil2 {fill:#990099;fill-rule:nonzero}
    .fil0 {fill:#CC3300;fill-rule:nonzero}
    .fil7 {fill:#CCCC33;fill-rule:nonzero}
    .fil5 {fill:#FF6600;fill-rule:nonzero}
    .fil1 {fill:#FFCC00;fill-rule:nonzero}
   ]]>
  </style>
 </defs>
 <g id="Layer_x0020_1">
  <metadata id="CorelCorpID_0Corel-Layer"/>
  <g id="_130377552">
   <path id="_130374192" class="fil0" d="M214.077 633.462l-9.74857 -35.8411 -14.4491 33.176c-0.514286,1.07429 -1.13371,1.904 -1.85829,2.48914 -0.725714,0.584 -1.624,0.876571 -2.70057,0.876571 -2.104,0 -3.624,-1.12229 -4.55886,-3.36571l-14.3794 -33.176 -9.74857 35.8411 -8.76686 0 13.1143 -47.9749c0.608,-2.432 2.08229,-3.648 4.42057,-3.648 0.933714,0 1.81143,0.257143 2.62971,0.771429 0.818286,0.514286 1.43886,1.26286 1.85829,2.24457l15.7109 36.0514 15.712 -36.0514c0.842286,-2.01143 2.26743,-3.016 4.27771,-3.016 2.152,0 3.57714,1.216 4.27886,3.648l13.0469 47.9749 -8.83886 0z"/>
   <path id="_130374120" class="fil1" d="M281.971 633.462l-7.64457 -12.8354 -24.128 0 4.208 -7.22514 15.6423 0 -11.3634 -19.0777 -23.1463 39.1383 -10.1691 0 29.3166 -48.8183c0.515429,-0.886857 1.12343,-1.58857 1.824,-2.10286 0.701714,-0.514286 1.544,-0.771429 2.52457,-0.771429 0.982857,0 1.81257,0.257143 2.49029,0.771429 0.678857,0.514286 1.27543,1.216 1.78857,2.10286l29.3886 48.8183 -10.7314 0z"/>
   <path id="_130373568" class="fil2" d="M298.174 633.462l0 -8.90857 38.2274 0c2.38286,0 4.21943,-0.608 5.50514,-1.824 1.28571,-1.21486 1.92914,-2.82743 1.92914,-4.83886 0,-2.19771 -0.643429,-3.84686 -1.92914,-4.944 -1.28571,-1.09943 -3.12229,-1.64914 -5.50514,-1.64914l-23.4274 0c-2.384,0 -4.54743,-0.362286 -6.48686,-1.08686 -1.94171,-0.724571 -3.57714,-1.73029 -4.91086,-3.016 -1.33257,-1.28571 -2.36114,-2.81714 -3.08686,-4.59429 -0.724571,-1.77714 -1.08686,-3.71771 -1.08686,-5.82171 0,-2.05714 0.339429,-3.96343 1.01714,-5.71657 0.677714,-1.75429 1.68343,-3.26171 3.016,-4.52457 1.33257,-1.26171 2.98171,-2.256 4.94514,-2.98057 1.96343,-0.723429 4.20914,-1.08571 6.73371,-1.08571l36.6126 0 0 8.90629 -36.6126 0c-2.05714,0 -3.648,0.549714 -4.77029,1.64914 -1.12229,1.09829 -1.68343,2.62971 -1.68343,4.59429 0,1.96343 0.573714,3.48229 1.71886,4.55771 1.14629,1.07657 2.70057,1.61371 4.664,1.61371l23.3577 0c5.18971,0 9.12914,1.216 11.8183,3.648 2.688,2.43086 4.03314,6.12457 4.03314,11.0811 0,2.152 -0.328,4.13829 -0.982857,5.96229 -0.654857,1.824 -1.63657,3.40114 -2.94629,4.73371 -1.30857,1.33371 -2.95657,2.37371 -4.944,3.12229 -1.98743,0.747429 -4.31429,1.12229 -6.97829,1.12229l-38.2274 0z"/>
   <polygon id="_130373496" class="fil3" points="376.239,633.462 376.239,591.377 356.88,591.377 356.88,582.471 404.505,582.471 404.505,591.377 385.147,591.377 385.147,633.462 "/>
   <path id="_130373472" class="fil4" d="M410.398 633.462l0 -50.9909 45.5211 0 0 8.90629 -36.6834 0 0 33.176 36.7531 0 0 8.90857 -45.5909 0zm15.3611 -22.1646l0 -7.50514 28.2651 0 0 7.50514 -28.2651 0z"/>
   <path id="_130373424" class="fil5" d="M510.978 633.462l-12.9063 -14.168 -19.0777 0 0 -7.856 21.2526 0c3.22514,0 5.65714,-0.876571 7.29371,-2.62971 1.63771,-1.75429 2.45486,-4.29143 2.45486,-7.61029 0,-3.32114 -0.852571,-5.78629 -2.56,-7.4 -1.70743,-1.61371 -4.10286,-2.42057 -7.18857,-2.42057l-27.776 0 0 42.0846 -8.83771 0 0 -50.9909 36.6137 0c2.89943,0 5.49371,0.432 7.78514,1.296 2.29143,0.866286 4.232,2.10514 5.82057,3.71771 1.59086,1.61371 2.80686,3.56571 3.648,5.85714 0.842286,2.29029 1.26171,4.86286 1.26171,7.71429 0,4.256 -0.923429,7.82171 -2.77029,10.6971 -1.84686,2.87543 -4.42971,4.944 -7.74971,6.20686l15.36 15.5017 -12.624 0z"/>
  </g>
  <g id="_130377384">
   <path id="_130373208" class="fil2" d="M168.904 696.953l0 -8.38857 35.9977 0c2.24571,0 3.97371,-0.572571 5.184,-1.71657 1.21143,-1.14629 1.816,-2.66514 1.816,-4.55771 0,-2.06971 -0.604571,-3.62286 -1.816,-4.656 -1.21029,-1.03543 -2.93829,-1.55314 -5.184,-1.55314l-22.0617 0c-2.24457,0 -4.28229,-0.340571 -6.10971,-1.024 -1.82743,-0.682286 -3.368,-1.62971 -4.62286,-2.84 -1.256,-1.21143 -2.224,-2.65257 -2.90629,-4.32686 -0.682286,-1.672 -1.024,-3.49943 -1.024,-5.48114 0,-1.93829 0.32,-3.73257 0.957714,-5.384 0.638857,-1.65029 1.58514,-3.07086 2.84114,-4.25943 1.25486,-1.18857 2.80571,-2.12457 4.65486,-2.808 1.84914,-0.682286 3.96457,-1.02286 6.34171,-1.02286l34.4777 0 0 8.38743 -34.4777 0c-1.93829,0 -3.43429,0.518857 -4.49257,1.552 -1.056,1.03543 -1.584,2.47771 -1.584,4.32686 0,1.84914 0.539429,3.28114 1.61714,4.29257 1.08,1.01371 2.544,1.52114 4.39314,1.52114l21.9954 0c4.88686,0 8.59657,1.144 11.1291,3.43314 2.53257,2.29029 3.79771,5.76914 3.79771,10.4366 0,2.02514 -0.307429,3.89714 -0.924571,5.61371 -0.616,1.71771 -1.54057,3.20343 -2.77371,4.45829 -1.23314,1.256 -2.78514,2.23543 -4.65714,2.93943 -1.87086,0.705143 -4.06171,1.05714 -6.57143,1.05714l-35.9977 0z"/>
   <polygon id="_130372968" class="fil6" points="242.418,696.953 242.418,657.322 224.189,657.322 224.189,648.935 269.035,648.935 269.035,657.322 250.806,657.322 250.806,696.953 "/>
   <path id="_130372800" class="fil5" d="M319.168 696.953l-12.1531 -13.3429 -17.9646 0 0 -7.39771 20.0126 0c3.03771,0 5.328,-0.825143 6.86971,-2.47657 1.54057,-1.65029 2.31086,-4.04 2.31086,-7.16686 0,-3.12457 -0.803429,-5.448 -2.41029,-6.968 -1.608,-1.51886 -3.86514,-2.27886 -6.77029,-2.27886l-26.1554 0 0 39.6309 -8.32229 0 0 -48.0183 34.4777 0c2.73029,0 5.17371,0.406857 7.33143,1.22171 2.15771,0.814857 3.98514,1.98171 5.48114,3.50057 1.49714,1.51886 2.64343,3.35657 3.43543,5.51429 0.793143,2.15771 1.18857,4.58057 1.18857,7.26629 0,4.00686 -0.869714,7.36457 -2.608,10.072 -1.74057,2.70857 -4.17257,4.65714 -7.29943,5.84571l14.4663 14.5977 -11.8903 0z"/>
   <path id="_130372512" class="fil4" d="M335.417 696.953l0 -48.0183 42.8663 0 0 8.38743 -34.544 0 0 31.2423 34.6091 0 0 8.38857 -42.9314 0zm14.4651 -20.872l0 -7.06629 26.6171 0 0 7.06629 -26.6171 0z"/>
   <path id="_130372392" class="fil7" d="M435.615 696.953l-7.19886 -12.088 -22.7223 0 3.96343 -6.80229 14.7303 0 -10.7017 -17.9669 -21.7954 36.8571 -9.57714 0 27.6091 -45.9714c0.483429,-0.835429 1.056,-1.496 1.71657,-1.98171 0.660571,-0.483429 1.45257,-0.725714 2.37714,-0.725714 0.925714,0 1.70743,0.242286 2.34629,0.725714 0.637714,0.485714 1.2,1.14629 1.68343,1.98171l27.6754 45.9714 -10.1063 0z"/>
   <path id="_130372272" class="fil0" d="M510.648 696.953l-9.18057 -33.752 -13.6069 31.2423c-0.484571,1.01257 -1.06857,1.79314 -1.75086,2.34514 -0.681143,0.549714 -1.53029,0.825143 -2.54171,0.825143 -1.98286,0 -3.41257,-1.05714 -4.29486,-3.17029l-13.5394 -31.2423 -9.18171 33.752 -8.25486 0 12.3509 -45.1783c0.572571,-2.28914 1.95886,-3.43429 4.16,-3.43429 0.882286,0 1.70743,0.242286 2.47771,0.725714 0.771429,0.485714 1.35429,1.18857 1.75086,2.11314l14.7954 33.9497 14.7943 -33.9497c0.793143,-1.89257 2.136,-2.83886 4.02971,-2.83886 2.02514,0 3.368,1.14514 4.02857,3.43429l12.2857 45.1783 -8.32229 0z"/>
  </g>
  <g id="_130360248">
   <path id="_130385424" class="fil8 str0" d="M57.3451 631.63l14.5257 0 0 36.8549 -14.5257 0 0 -36.8549zm3.68686 -9.10857l7.15429 0 0 5.20457 -7.15429 0 0 -5.20457zm0 -9.32229l7.15429 0 0 5.42057 -7.15429 0 0 -5.42057zm0 -9.32229l7.15429 0 0 5.42057 -7.15429 0 0 -5.42057zm0.217143 -8.67086l0.213714 -0.217143 0.217143 -0.217143 0.217143 -0.217143 0.217143 -0.217143 0.217143 -0.217143 0.217143 -0.217143 0.217143 -0.217143 0.217143 -0.217143 0.217143 -0.217143 0.217143 -0.213714 0.213714 -0.217143 0.217143 -0.217143 0.217143 -0.217143 0.217143 -0.217143 0.434286 0 0.217143 0.217143 0.217143 0.217143 0.217143 0.217143 0.217143 0.217143 0.217143 0.213714 0.217143 0.217143 0.213714 0.217143 0.217143 0.217143 0.217143 0.217143 0.217143 0.217143 0.217143 0.217143 0.217143 0.217143 0.217143 0.217143 0.217143 0.217143 0.217143 0.217143 0.216 4.552 -7.16914 0 0.232 -4.76914zm2.168 -7.80571l-0.434286 0.217143 -0.217143 0.217143 -0.217143 0.216 -0.217143 0.217143 -0.217143 0.214857 -0.217143 0.217143 -0.217143 0.217143 -0.217143 0.217143 -0.213714 0.217143 -0.217143 0.216 -0.217143 0.217143 -0.217143 0.217143 -0.217143 0.217143 -0.217143 0.217143 -0.217143 0.217143 -0.216 0.214857 -0.217143 0.216 -0.217143 0.217143 -0.217143 0.217143 -0.217143 0.217143 -0.214857 0.217143 -0.216 0.217143 -0.217143 0.217143 -0.217143 0.217143 -0.217143 0.217143 -0.217143 0.217143 -0.217143 0.430857 -0.217143 0.217143 0 34.04 -2.168 0 -0.651429 0.217143 -0.430857 0.216 -0.217143 0.434286 -0.217143 0.217143 0 42.4937 0.217143 0.434286 0.217143 0.217143 0.430857 0.217143 0.434286 0.217143 4.11886 0 0 6.93714 0.217143 1.95086 0.217143 1.08571 0.217143 0.865143 0.217143 0.868571 0.216 0.433143 0.217143 0.649143 0.217143 0.650286 0.217143 0.434286 0.217143 0.434286 0.217143 0.434286 0.217143 0.430857 0.213714 0.434286 0.217143 0.434286 0.217143 0.217143 0.217143 0.434286 0.217143 0.217143 0.217143 0.434286 0.217143 0.213714 0.217143 0.217143 0.217143 0.434286 0.217143 0.217143 0.213714 0.217143 0.217143 0.217143 0.217143 0.217143 0.217143 0.434286 0.217143 0.217143 0.217143 0.213714 0.217143 0.217143 0.217143 0.217143 0.217143 0.217143 0.434286 0.217143 0.217143 0.217143 0.213714 0.217143 0.217143 0.217143 0.217143 0.216 0.434286 0.217143 0.217143 0.217143 0.217143 0.214857 0.434286 0.217143 0.216 0.216 0.432 0.217143 0.434286 0.217143 0.217143 0.217143 0.433143 0.217143 0.434286 0.217143 0.434286 0.217143 0.430857 0.217143 0.651429 0.217143 0.434286 0.213714 0.651429 0.217143 0.648 0.217143 0.868571 0.217143 0.868571 0.217143 1.29943 0.217143 5.85486 0 1.29943 -0.217143 0.868571 -0.217143 0.868571 -0.217143 0.648 -0.217143 0.651429 -0.217143 0.434286 -0.213714 0.650286 -0.217143 0.432 -0.217143 0.434286 -0.217143 0.433143 -0.217143 0.434286 -0.217143 0.217143 -0.217143 0.434286 -0.217143 0.430857 -0.217143 0.217143 -0.216 0.434286 -0.217143 0.217143 -0.214857 0.217143 -0.217143 0.434286 -0.217143 0.217143 -0.216 0.217143 -0.217143 0.213714 -0.217143 0.217143 -0.217143 0.434286 -0.217143 0.217143 -0.217143 0.217143 -0.217143 0.217143 -0.217143 0.217143 -0.213714 0.217143 -0.217143 0.217143 -0.217143 0.217143 -0.434286 0.213714 -0.217143 0.217143 -0.217143 0.217143 -0.217143 0.217143 -0.217143 0.217143 -0.434286 0.217143 -0.213714 0.217143 -0.217143 0.217143 -0.434286 0.217143 -0.434286 0.217143 -0.217143 0.216 -0.434286 0.214857 -0.434286 0.217143 -0.430857 0.217143 -0.434286 0.217143 -0.434286 0.216 -0.434286 0.217143 -0.650286 0.217143 -0.432 0.217143 -0.650286 0.217143 -0.868571 0.217143 -0.865143 0.217143 -1.08571 0.217143 -1.73371 0.213714 -71.3314 0.217143 -1.08229 0.217143 -0.651429 0.217143 -0.651429 0.217143 -0.434286 0.217143 -0.430857 0.217143 -0.434286 0.217143 -0.217143 0.217143 -0.434286 0.217143 -0.217143 0.217143 -0.217143 0.213714 -0.217143 0.217143 -0.217143 0.217143 -0.213714 0.217143 -0.217143 0.217143 -0.217143 0.217143 -0.217143 0.434286 -0.217143 0.217143 -0.217143 0.434286 -0.217143 0.430857 -0.217143 0.434286 -0.217143 0.651429 -0.217143 0.867429 -0.217143 1.51657 -0.213714 1.08229 0 1.52 0.213714 0.651429 0.217143 0.648 0.217143 0.434286 0.217143 0.434286 0.217143 0.434286 0.217143 0.217143 0.217143 0.430857 0.217143 0.217143 0.217143 0.217143 0.217143 0.217143 0.217143 0.434286 0 0 0.430857 0.217143 0.217143 0.217143 0.217143 0.217143 0.217143 0.216 0.217143 0.217143 0.434286 0.217143 0.434286 0.214857 0.430857 0.217143 0.217143 0.217143 0.651429 0.216 0.651429 0.217143 0.865143 0.217143 90.4103 3.90171 0 0 -90.8411 -0.217143 -1.08571 -0.213714 -0.868571 -0.217143 -0.648 -0.217143 -0.434286 -0.217143 -0.434286 -0.217143 -0.651429 -0.217143 -0.217143 -0.217143 -0.430857 -0.217143 -0.434286 -0.217143 -0.217143 -0.217143 -0.434286 -0.217143 -0.217143 -0.217143 -0.217143 -0.213714 -0.217143 -0.217143 -0.217143 -0.217143 -0.213714 -0.217143 -0.434286 -0.434286 -0.217143 -0.217143 -0.217143 -0.216 -0.217143 -0.217143 -0.217143 -0.217143 -0.216 -0.432 -0.217143 -0.217143 -0.217143 -0.433143 -0.217143 -0.217143 -0.214857 -0.434286 -0.216 -0.434286 -0.217143 -0.434286 -0.217143 -0.430857 -0.217143 -0.651429 -0.217143 -0.651429 -0.217143 -0.865143 -0.217143 -1.30286 -0.217143 -3.03543 0 -1.29943 0.217143 -0.868571 0.217143 -0.648 0.217143 -0.651429 0.217143 -0.434286 0.217143 -0.434286 0.217143 -0.434286 0.217143 -0.430857 0.216 -0.217143 0.214857 -0.434286 0.217143 -0.217143 0.217143 -0.434286 0.217143 -0.217143 0.216 -0.217143 0.217143 -0.217143 0.217143 -0.217143 0.217143 -0.213714 0.217143 -0.217143 0.217143 -0.217143 0.217143 -0.217143 0.213714 -0.217143 0.217143 -0.217143 0.217143 -0.217143 0.217143 -0.217143 0.434286 -0.216 0.217143 -0.217143 0.217143 -0.217143 0.434286 -0.217143 0.430857 -0.214857 0.434286 -0.216 0.434286 -0.217143 0.434286 -0.217143 0.651429 -0.217143 0.430857 -0.217143 0.868571 -0.217143 1.30171 -0.217143 71.7634 -0.217143 1.51657 -0.217143 0.868571 -0.217143 0.865143 -0.213714 0.651429 -0.217143 0.651429 -0.217143 0.433143 -0.217143 0.434286 -0.217143 0.432 -0.217143 0.433143 -0.217143 0.434286 -0.217143 0.434286 -0.217143 0.217143 -0.217143 0.434286 -0.217143 0.213714 -0.213714 0.434286 -0.217143 0.217143 -0.217143 0.217143 -0.217143 0.217143 -0.217143 0.434286 -0.217143 0.217143 -0.217143 0.217143 -0.217143 0.217143 -0.217143 0.217143 -0.217143 0.213714 -0.217143 0.217143 -0.430857 0.217143 -0.217143 0.217143 -0.217143 0.217143 -0.217143 0.217143 -0.434286 0.217143 -0.216 0.217143 -0.434286 0.217143 -0.432 0.217143 -0.217143 0.217143 -0.433143 0.213714 -0.434286 0.217143 -0.434286 0.217143 -0.434286 0.217143 -0.648 0.217143 -0.651429 0.217143 -0.651429 0.217143 -0.865143 0.217143 -1.08571 0.216 -4.98629 0 -1.08571 -0.216 -0.865143 -0.217143 -0.651429 -0.217143 -0.651429 -0.217143 -0.648 -0.217143 -0.434286 -0.217143 -0.434286 -0.217143 -0.434286 -0.217143 -0.434286 -0.213714 -0.217143 -0.217143 -0.430857 -0.217143 -0.434286 -0.217143 -0.217143 -0.217143 -0.217143 -0.217143 -0.433143 -0.217143 -0.217143 -0.217143 -0.217143 -0.217143 -0.217143 -0.217143 -0.432 -0.217143 -0.216 -0.213714 -0.217143 -0.217143 -0.217143 -0.217143 -0.217143 -0.217143 -0.217143 -0.434286 -0.217143 -0.217143 -0.217143 -0.217143 -0.217143 -0.217143 -0.217143 -0.217143 -0.213714 -0.434286 -0.217143 -0.213714 -0.217143 -0.434286 -0.217143 -0.217143 -0.217143 -0.434286 -0.217143 -0.434286 -0.217143 -0.433143 -0.217143 -0.432 -0.217143 -0.434286 -0.217143 -0.433143 -0.217143 -0.651429 -0.217143 -0.651429 -0.213714 -0.865143 -0.217143 -1.08571 -0.217143 -1.73371 -0.217143 -6.50286 3.46743 0 0 6.28571 0.217143 1.73371 0.217143 0.868571 0.217143 0.868571 0.217143 0.430857 0.217143 0.651429 0.217143 0.434286 0.217143 0.434286 0.217143 0.433143 0.216 0.217143 0.217143 0.432 0.214857 0.217143 0.217143 0.433143 0.217143 0.217143 0.217143 0.217143 0.217143 0.217143 0.216 0.217143 0.217143 0.217143 0.217143 0.217143 0.217143 0.213714 0.217143 0.217143 0.217143 0.217143 0.213714 0.217143 0.217143 0.217143 0.434286 0.217143 0.217143 0.217143 0.217143 0.217143 0.434286 0.217143 0.434286 0.217143 0.217143 0.217143 0.430857 0.217143 0.651429 0.213714 0.434286 0.217143 0.651429 0.217143 0.865143 0.217143 0.868571 0.217143 4.552 0 0.868571 -0.217143 0.865143 -0.217143 0.651429 -0.217143 0.651429 -0.217143 0.434286 -0.213714 0.430857 -0.217143 0.217143 -0.217143 0.434286 -0.217143 0.434286 -0.217143 0.217143 -0.217143 0.433143 -0.217143 0.217143 -0.217143 0.217143 -0.217143 0.214857 -0.217143 0.217143 -0.217143 0.217143 -0.217143 0.433143 -0.213714 0.217143 -0.434286 0.217143 -0.217143 0.217143 -0.217143 0.217143 -0.217143 0.217143 -0.217143 0.217143 -0.433143 0.213714 -0.217143 0.217143 -0.432 0.217143 -0.217143 0.217143 -0.433143 0.217143 -0.434286 0.217143 -0.434286 0.217143 -0.434286 0.217143 -0.648 0.217143 -0.651429 0.217143 -0.868571 0.217143 -1.51657 0.213714 -71.7623 0.217143 -1.30286 0.217143 -0.865143 0.217143 -0.868571 0.217143 -0.651429 0.217143 -0.434286 0.217143 -0.648 0.217143 -0.434286 0.217143 -0.434286 0.217143 -0.434286 0.217143 -0.217143 0.213714 -0.434286 0.217143 -0.430857 0.217143 -0.217143 0.217143 -0.217143 0.217143 -0.434286 0.217143 -0.217143 0.217143 -0.216 0.217143 -0.217143 0.217143 -0.217143 0.217143 -0.432 0.216 -0.216 0.214857 -0.217143 0.217143 -0.217143 0.434286 -0.217143 0.216 -0.217143 0.217143 -0.217143 0.217143 -0.217143 0.217143 -0.217143 0.434286 -0.217143 0.217143 -0.217143 0.430857 -0.213714 0.217143 -0.217143 0.434286 -0.217143 0.434286 -0.217143 0.434286 -0.217143 0.434286 -0.217143 0.430857 -0.217143 0.434286 -0.217143 0.651429 -0.217143 0.651429 -0.217143 0.865143 -0.217143 0.868571 -0.217143 1.29943 -0.213714 3.46971 0 1.29943 0.213714 0.868571 0.217143 0.868571 0.217143 0.648 0.217143 0.651429 0.217143 0.434286 0.217143 0.434286 0.217143 0.650286 0.217143 0.432 0.217143 0.217143 0.217143 0.433143 0.217143 0.217143 0.217143 0.434286 0.213714 0.217143 0.217143 0.434286 0.217143 0.213714 0.217143 0.217143 0.217143 0.217143 0.217143 0.434286 0.217143 0.217143 0.217143 0.217143 0.217143 0.217143 0.217143 0.217143 0.216 0.217143 0.214857 0.217143 0.217143 0.217143 0.434286 0.213714 0.216 0.217143 0.217143 0.217143 0.434286 0.217143 0.217143 0.217143 0.217143 0.217143 0.430857 0.217143 0.434286 0.217143 0.217143 0.217143 0.434286 0.217143 0.434286 0.217143 0.434286 0.213714 0.430857 0.217143 0.651429 0.217143 0.651429 0.217143 0.651429 0.217143 0.865143 0.217143 1.30286 0.217143 91.0583 3.90057 0 0 -91.4926 -0.217143 -1.51657 -0.217143 -0.868571 -0.213714 -0.868571 -0.217143 -0.648 -0.217143 -0.651429 -0.217143 -0.434286 -0.217143 -0.651429 -0.217143 -0.434286 -0.217143 -0.430857 -0.217143 -0.434286 -0.216 -0.434286 -0.217143 -0.217143 -0.217143 -0.433143 -0.214857 -0.434286 -0.217143 -0.214857 -0.217143 -0.433143 -0.216 -0.217143 -0.217143 -0.217143 -0.217143 -0.434286 -0.217143 -0.217143 -0.217143 -0.217143 -0.217143 -0.217143 -0.217143 -0.217143 -0.217143 -0.430857 -0.213714 -0.217143 -0.217143 -0.217143 -0.217143 -0.217143 -0.217143 -0.217143 -0.217143 -0.217143 -0.217143 -0.217143 -0.434286 -0.217143 -0.217143 -0.217143 -0.217143 -0.217143 -0.217143 -0.217143 -0.213714 -0.213714 -0.434286 -0.217143 -0.217143 -0.217143 -0.217143 -0.217143 -0.434286 -0.217143 -0.434286 -0.217143 -0.217143 -0.217143 -0.434286 -0.217143 -0.430857 -0.217143 -0.434286 -0.217143 -0.434286 -0.216 -0.433143 -0.214857 -0.434286 -0.217143 -0.649143 -0.217143 -0.433143 -0.217143 -0.651429 -0.217143 -0.868571 -0.217143 -0.648 -0.216 -1.30286 -0.217143 -1.51657 -0.217143 -3.90171 0 -1.51886 0.217143 -1.08229 0.217143 -0.868571 0.216 -0.868571 0.217143 -0.648 0.217143 -0.434286 0.217143 -0.651429 0.217143 -0.434286 0.217143 -0.434286 0.214857 -0.430857 0.216 -0.434286 0.217143 -0.434286 0.217143 -0.434286 0.217143 -0.216 0.217143 -0.434286 0.217143 -0.217143 0.217143 -0.430857 0.217143 -0.217143 0.217143 -0.217143 0.217143 -0.434286 0.213714 -0.217143 0.217143 -0.217143 0.217143 -0.217143 0.217143 -0.217143 0.217143 -0.217143 0.217143 -0.430857 0.217143 -0.217143 0.217143 -0.217143 0.217143 -0.217143 0.217143 -0.217143 0.434286 -0.217143 0.213714 -0.217143 0.217143 -0.217143 0.217143 -0.217143 0.217143 -0.217143 0.217143 -0.213714 0.434286 -0.217143 0.217143 -0.217143 0.217143 -0.217143 0.433143 -0.217143 0.432 -0.217143 0.217143 -0.217143 0.433143 -0.217143 0.217143 -0.217143 0.434286 -0.217143 0.434286 -0.217143 0.648 -0.213714 0.434286 -0.217143 0.434286 -0.217143 0.651429 -0.217143 0.648 -0.217143 0.651429 -0.217143 0.868571 -0.217143 0.865143 -0.216 1.30286 -0.217143 71.5451 -0.217143 1.52 -0.217143 0.865143 -0.214857 0.651429 -0.217143 0.434286 -0.217143 0.434286 -0.216 0.430857 -0.217143 0.217143 -0.217143 0.434286 -0.217143 0.217143 -0.217143 0.217143 -0.217143 0.217143 0 0.433143 -0.434286 0 -0.213714 0.217143 -0.217143 0.217143 -0.217143 0.214857 -0.217143 0.217143 -0.434286 0.217143 -0.434286 0.216 -0.434286 0.217143 -0.217143 0.217143 -0.648 0.217143 -0.651429 0.217143 -0.868571 0.217143 -3.25029 0 -0.867429 -0.217143 -0.651429 -0.217143 -0.434286 -0.217143 -0.430857 -0.217143 -0.434286 -0.217143 -0.434286 -0.216 -0.434286 -0.217143 -0.217143 -0.217143 -0.217143 -0.214857 -0.217143 -0.217143 -0.213714 -0.217143 -0.217143 -0.216 -0.217143 -0.217143 -0.217143 -0.217143 -0.217143 -0.217143 -0.217143 -0.217143 -0.217143 -0.434286 -0.217143 -0.430857 -0.217143 -0.217143 -0.217143 -0.434286 -0.217143 -0.434286 -0.213714 -0.868571 -0.217143 -0.648 -0.217143 -1.73714 -0.217143 -5.63429 4.336 0 0.434286 -0.217143 0.217143 -0.217143 0.217143 -0.217143 0.217143 -0.217143 0.213714 -0.434286 0 -41.8423 -0.213714 -0.651429 -0.217143 -0.217143 -0.217143 -0.217143 -0.217143 -0.216 -0.651429 -0.217143 -2.168 0 0 -33.6057 -0.217143 -0.651429 -0.217143 -0.217143 -0.217143 -0.213714 -0.217143 -0.217143 -0.217143 -0.217143 -0.213714 -0.217143 -0.217143 -0.217143 -0.217143 -0.217143 -0.217143 -0.217143 -0.217143 -0.217143 -0.217143 -0.217143 -0.216 -0.217143 -0.217143 -0.216 -0.217143 -0.214857 -0.217143 -0.217143 -0.217143 -0.217143 -0.214857 -0.217143 -0.217143 -0.217143 -0.216 -0.217143 -0.217143 -0.216 -0.217143 -0.217143 -0.217143 -0.217143 -0.217143 -0.217143 -0.217143 -0.217143 -0.217143 -0.214857 -0.217143 -0.217143 -0.217143 -0.216 -0.213714 -0.217143 -0.217143 -0.217143 -0.434286 -0.217143 -1.73714 0 -0.213714 0.217143z"/>
  </g>
 </g>
</svg>
